<svg id="svg" xmlns="http://www.w3.org/2000/svg" xmlns:xlink="http://www.w3.org/1999/xlink"
    width="400" height="179.0859798605732" viewBox="0, 0, 400,179.0859798605732">
    <g id="svgg">
        <path id="path0"
            d="M281.022 0.950 C 272.987 5.377,273.656 17.554,282.109 20.738 C 292.978 24.832,302.034 11.748,294.372 3.021 C 291.633 -0.099,284.840 -1.153,281.022 0.950 M12.921 5.094 C 9.988 6.141,7.796 8.426,6.957 11.313 C 6.112 14.218,6.441 68.461,7.314 70.349 C 10.687 77.639,21.292 77.930,25.034 70.836 L 25.871 69.249 26.030 57.475 C 26.175 46.806,26.243 45.599,26.762 44.617 C 29.538 39.361,37.013 39.224,39.229 44.388 C 39.729 45.553,39.811 47.010,39.958 57.320 C 40.115 68.288,40.160 69.018,40.776 70.349 C 44.149 77.639,54.754 77.930,58.496 70.836 L 59.334 69.249 59.334 54.841 C 59.334 37.054,58.900 34.940,54.229 29.962 C 47.645 22.946,34.259 22.400,27.873 28.886 C 27.073 29.699,26.338 30.364,26.239 30.364 C 26.140 30.364,26.017 26.077,25.965 20.837 L 25.871 11.309 25.034 9.722 C 22.837 5.557,17.423 3.489,12.921 5.094 M314.712 4.966 C 311.761 5.709,309.160 7.969,308.104 10.708 C 307.134 13.223,307.191 68.242,308.166 70.349 C 311.539 77.639,322.144 77.930,325.886 70.836 L 326.723 69.249 326.807 40.920 C 326.900 9.543,326.999 11.212,324.874 8.316 C 322.921 5.654,318.182 4.092,314.712 4.966 M345.314 4.932 C 342.410 5.735,340.625 7.123,339.263 9.635 L 338.187 11.619 338.187 40.279 C 338.187 68.765,338.191 68.947,338.840 70.349 C 342.213 77.639,352.822 77.930,356.559 70.836 C 357.364 69.307,357.399 69.039,357.498 63.594 L 357.601 57.940 358.619 57.940 C 362.993 57.940,364.175 58.941,366.368 64.503 C 370.190 74.198,372.195 76.107,378.292 75.855 C 382.880 75.665,385.641 73.847,386.898 70.188 C 388.719 64.888,384.470 52.920,379.639 49.742 C 377.392 48.264,377.417 48.321,378.693 47.567 C 381.739 45.768,383.440 43.376,384.639 39.208 C 386.926 31.258,383.590 25.780,376.266 25.460 C 370.058 25.189,367.608 27.225,365.339 34.547 C 363.766 39.621,362.976 40.482,359.609 40.796 L 357.552 40.988 357.552 26.702 C 357.552 10.665,357.535 10.524,355.218 7.818 C 353.140 5.389,348.523 4.044,345.314 4.932 M151.805 8.768 C 146.720 10.209,144.910 13.224,144.748 20.527 L 144.640 25.407 143.350 25.430 C 133.324 25.613,132.812 41.041,142.774 42.795 L 144.639 43.124 144.771 52.313 C 145.035 70.692,149.538 75.847,165.453 75.986 C 174.491 76.066,177.382 73.909,177.382 67.086 C 177.382 61.471,174.796 58.865,168.739 58.378 C 164.497 58.037,164.429 57.903,164.277 49.542 L 164.161 43.159 167.363 42.982 C 174.252 42.600,177.536 39.724,177.527 34.082 C 177.518 28.451,174.424 25.687,167.880 25.465 L 164.266 25.343 164.162 20.340 C 164.046 14.718,163.662 13.411,161.486 11.235 C 159.227 8.976,154.933 7.882,151.805 8.768 M217.741 24.526 C 213.917 24.909,209.940 26.623,207.414 28.974 L 206.014 30.279 205.589 29.469 C 202.326 23.243,192.240 24.165,189.029 30.984 L 188.226 32.688 188.226 50.813 L 188.226 68.939 189.096 70.709 C 192.526 77.695,202.941 77.770,206.599 70.836 L 207.436 69.249 207.591 56.545 C 207.757 42.910,207.724 43.173,209.452 41.719 C 211.473 40.019,214.649 40.494,216.022 42.701 C 216.724 43.830,216.733 43.975,216.886 56.545 L 217.041 69.249 217.878 70.836 C 221.621 77.930,232.225 77.639,235.599 70.349 C 236.219 69.009,236.259 68.319,236.406 56.390 C 236.582 42.156,236.559 42.291,238.983 41.191 C 240.638 40.439,241.483 40.441,243.054 41.202 C 245.566 42.418,245.526 42.184,245.701 56.545 L 245.856 69.249 246.693 70.836 C 250.436 77.930,261.040 77.639,264.413 70.349 C 265.934 67.063,265.481 41.700,263.814 36.774 C 259.753 24.768,244.088 20.353,232.851 28.046 L 230.902 29.380 229.703 28.149 C 227.031 25.404,222.544 24.045,217.741 24.526 M91.036 25.088 C 62.460 31.114,62.572 70.339,91.182 76.243 C 110.266 80.181,126.854 68.284,126.854 50.658 C 126.854 33.006,110.124 21.063,91.036 25.088 M281.794 26.288 C 279.720 27.269,278.162 28.850,277.182 30.968 C 276.162 33.174,276.162 68.143,277.182 70.349 C 280.555 77.639,291.160 77.930,294.902 70.836 L 295.740 69.249 295.740 50.658 L 295.740 32.068 294.902 30.481 C 292.477 25.883,286.614 24.008,281.794 26.288 M102.482 42.100 C 108.731 45.288,108.354 56.698,101.909 59.471 C 94.416 62.695,87.516 55.583,90.005 47.202 C 91.555 41.983,97.492 39.555,102.482 42.100 M250.610 88.098 C 238.554 92.596,241.758 109.853,254.549 109.313 C 265.939 108.832,269.061 93.408,258.728 88.661 C 256.642 87.703,252.449 87.412,250.610 88.098 M219.985 92.931 C 214.324 94.659,213.352 96.903,213.228 108.521 C 213.176 113.420,213.072 117.428,212.996 117.428 C 212.921 117.428,212.197 116.956,211.387 116.380 C 200.146 108.375,184.254 112.824,178.463 125.597 C 175.116 132.979,175.115 142.896,178.462 150.116 C 187.095 168.740,218.332 170.206,229.092 152.494 C 232.616 146.693,232.751 145.470,232.632 120.372 L 232.533 99.303 231.696 97.715 C 229.587 93.718,224.378 91.590,219.985 92.931 M77.444 96.762 C 72.359 98.203,70.549 101.218,70.387 108.521 L 70.279 113.400 68.989 113.424 C 58.963 113.607,58.451 129.034,68.413 130.789 L 70.279 131.118 70.410 140.307 C 70.674 158.686,75.178 163.840,91.092 163.980 C 100.130 164.059,103.021 161.903,103.021 155.080 C 103.021 149.465,100.435 146.859,94.378 146.372 C 90.136 146.031,90.068 145.897,89.916 137.536 L 89.800 131.153 93.002 130.975 C 99.891 130.594,103.175 127.718,103.166 122.076 C 103.157 116.444,100.063 113.681,93.520 113.459 L 89.905 113.337 89.801 108.334 C 89.685 102.712,89.301 101.405,87.125 99.229 C 84.866 96.970,80.572 95.876,77.444 96.762 M23.116 113.076 C 12.945 115.289,7.535 122.709,9.302 132.025 C 10.599 138.866,14.927 142.331,26.609 145.880 C 33.248 147.897,34.435 148.779,32.690 150.397 C 30.513 152.414,25.180 151.549,17.978 148.010 C 12.900 145.515,9.634 145.929,7.130 149.385 C 1.559 157.077,11.201 164.208,27.885 164.735 C 43.666 165.234,52.382 158.841,52.007 147.043 C 51.772 139.638,47.761 135.336,38.265 132.305 C 30.441 129.808,29.356 129.406,28.494 128.681 C 26.576 127.066,27.693 125.484,30.753 125.484 C 32.953 125.484,35.539 126.325,39.035 128.177 C 47.063 132.430,54.397 123.753,48.034 117.531 C 43.967 113.555,31.314 111.293,23.116 113.076 M295.219 113.082 C 266.643 119.108,266.755 158.332,295.365 164.236 C 314.449 168.175,331.037 156.278,331.037 138.652 C 331.037 121.000,314.307 109.056,295.219 113.082 M357.740 113.076 C 347.569 115.289,342.159 122.709,343.926 132.025 C 345.223 138.866,349.552 142.331,361.234 145.880 C 367.872 147.897,369.060 148.779,367.314 150.397 C 365.138 152.414,359.804 151.549,352.602 148.010 C 347.525 145.515,344.258 145.929,341.755 149.385 C 336.183 157.077,345.825 164.208,362.510 164.735 C 378.290 165.234,387.006 158.841,386.632 147.043 C 386.396 139.638,382.385 135.336,372.889 132.305 C 365.065 129.808,363.980 129.406,363.118 128.681 C 361.200 127.066,362.318 125.484,365.377 125.484 C 367.578 125.484,370.163 126.325,373.659 128.177 C 381.687 132.430,389.022 123.753,382.658 117.531 C 378.591 113.555,365.938 111.293,357.740 113.076 M119.130 114.282 C 114.141 116.642,113.885 117.560,113.775 133.432 C 113.654 151.038,114.430 154.680,119.342 159.547 C 126.081 166.223,141.316 166.302,147.136 159.689 L 148.311 158.355 148.788 159.357 C 151.804 165.681,161.700 165.533,164.983 159.115 L 165.918 157.286 165.918 138.829 C 165.918 120.716,165.906 120.346,165.265 118.962 C 161.892 111.672,151.288 111.380,147.545 118.475 L 146.708 120.062 146.553 131.991 C 146.432 141.275,146.304 144.091,145.974 144.694 C 143.410 149.373,136.351 149.668,133.919 145.199 C 133.457 144.348,133.372 142.746,133.233 132.146 L 133.075 120.062 132.238 118.475 C 129.813 113.877,123.949 112.002,119.130 114.282 M249.571 114.282 C 247.497 115.263,245.939 116.844,244.959 118.962 C 243.938 121.168,243.938 156.137,244.959 158.343 C 248.332 165.633,258.937 165.924,262.679 158.830 L 263.517 157.242 263.517 138.652 L 263.517 120.062 262.679 118.475 C 260.254 113.877,254.391 112.002,249.571 114.282 M207.964 129.064 C 214.551 131.308,215.595 144.038,209.450 147.173 C 202.619 150.658,195.976 146.228,195.973 138.187 C 195.971 130.737,201.199 126.759,207.964 129.064 M306.665 130.094 C 312.913 133.282,312.537 144.692,306.092 147.465 C 298.598 150.688,291.699 143.577,294.187 135.196 C 295.738 129.976,301.675 127.548,306.665 130.094 "
            stroke="none" fill-rule="evenodd"></path>
    </g>
    <style>
        #path0 {
            fill: currentColor;
        }
    </style>
</svg>
